<svg width="100" height="81" viewBox="0 0 100 81" fill="none" xmlns="http://www.w3.org/2000/svg">
<path d="M99.9263 5.63426C99.9263 7.03797 99.9628 8.44168 99.9035 9.84538C99.8853 10.2307 99.6664 10.8041 99.3837 10.928C99.0874 11.0564 98.5266 10.85 98.2165 10.6069C97.487 10.0335 96.8305 9.36372 96.1602 8.71691C95.4444 8.02882 95.3806 8.01047 94.6374 8.67104C89.8454 12.9097 85.0717 17.1713 80.2615 21.387C75.082 25.9284 69.8751 30.4423 64.6637 34.947C63.2731 36.1488 61.4447 36.1764 59.9629 35.0662C53.3928 30.1533 46.8317 25.2265 40.2662 20.3044C39.5184 19.7447 38.7388 19.2355 38.0092 18.653C37.4621 18.2218 37.0381 18.2722 36.4955 18.6897C31.5394 22.4742 26.5696 26.2495 21.5862 30.0019C15.4857 34.5937 9.37602 39.1718 3.25726 43.7362C2.10829 44.594 0.859003 44.3922 0.261717 43.3646C-0.212464 42.5389 -0.0528837 41.6811 0.827087 40.9471C2.0399 39.9379 3.28918 38.97 4.54302 38.0113C14.4917 30.4423 24.4449 22.8732 34.4027 15.318C34.8952 14.9418 35.4104 14.5611 35.9712 14.3317C37.143 13.8592 38.2783 13.9464 39.3406 14.74C44.0459 18.2584 48.7604 21.7585 53.4748 25.2632C56.1102 27.222 58.7455 29.1945 61.3991 31.1303C62.3065 31.7955 62.498 31.7496 63.346 31.0019C72.8615 22.6026 82.3725 14.1987 91.888 5.7994C92.5674 5.19847 92.5583 5.12049 91.9245 4.44157C91.0901 3.55164 90.233 2.68464 89.4579 1.74884C88.7466 0.891017 88.9654 0.317608 90.0597 0.124942C90.7664 0.00108573 91.5005 -0.00350159 92.2209 0.00108569C94.2863 0.00108569 96.3563 0.00567301 98.4217 0.0607203C99.712 0.0928313 99.9446 0.349719 99.981 1.65709C100.018 2.98282 99.9902 4.30854 99.9902 5.63426C99.9674 5.63426 99.9446 5.63426 99.9263 5.63426Z" fill="#60666D"/>
<rect y="56" width="20" height="25" rx="4" fill="#60666D"/>
<rect x="27" y="37" width="20" height="44" rx="4" fill="#60666D"/>
<rect x="54" y="49" width="20" height="32" rx="4" fill="#60666D"/>
<rect x="80" y="31" width="20" height="50" rx="4" fill="#60666D"/>
</svg>
