<svg width="100" height="119" viewBox="0 0 100 119" fill="none" xmlns="http://www.w3.org/2000/svg">
<path d="M19.7117 85.8264C19.7117 85.051 19.7117 84.3154 19.7117 83.5799C19.7117 82.4367 19.7067 81.2886 19.7117 80.1455C19.7217 78.6694 20.5248 77.8593 22.0014 77.8593C29.1748 77.8543 36.3481 77.8592 43.5215 77.8543C43.8108 77.8543 44.1001 77.8245 44.4792 77.7996C44.3695 77.5958 44.3196 77.4616 44.2348 77.3573C41.7057 74.2609 38.7625 71.6218 35.4402 69.3902C35.0661 69.1417 34.7568 69.1814 34.3877 69.3653C30.8309 71.0999 27.0597 72.0045 23.1138 71.7808C13.571 71.2341 6.53229 66.7113 2.08261 58.2571C1.12982 56.448 0.551165 54.5047 0.0922301 52.5216C-0.19211 51.284 0.172045 50.4789 1.30941 49.8924C4.06801 48.466 6.97127 47.4968 10.084 47.2383C19.6319 46.4481 27.1544 50.0365 32.6966 57.7651C34.238 59.9121 35.2656 62.3276 35.974 64.8823C36.0488 65.1556 36.2833 65.4489 36.5227 65.598C39.9099 67.6804 42.9478 70.1804 45.6266 73.1128C45.7613 73.2569 45.9259 73.3762 46.2052 73.6197C46.2402 73.237 46.2751 73.0233 46.2751 72.8046C46.2801 67.8842 46.2701 62.9638 46.2851 58.0434C46.2851 57.5464 46.1604 57.3525 45.6266 57.2979C39.8051 56.7213 34.6321 54.5941 30.1126 50.8765C26.0271 47.5167 23.1338 43.3318 21.328 38.3965C20.5498 36.2643 20.1158 34.0476 19.8713 31.7813C19.567 28.9731 19.7217 26.1948 20.2754 23.4414C20.9838 19.9027 22.3107 16.6025 24.321 13.5857C28.2319 7.71594 33.5396 3.72493 40.3289 1.70209C43.0176 0.901902 45.7663 0.514232 48.5598 0.563933C53.8725 0.658365 58.831 2.04503 63.3305 4.90285C68.8328 8.39684 72.7736 13.1682 75.0433 19.2814C76.465 23.1084 77.0387 27.0696 76.7095 31.1302C76.2156 37.2136 73.9858 42.6161 70.03 47.2831C66.4433 51.5126 62.0136 54.5245 56.6859 56.105C54.7654 56.6766 52.7501 56.9301 50.7746 57.3078C50.4454 57.3724 50.2209 57.4171 50.2259 57.8297C50.2359 60.7571 50.2309 63.6845 50.2359 66.6119C50.2359 66.7312 50.2908 66.8504 50.3407 67.0592C50.5402 66.9399 50.7148 66.8653 50.8445 66.751C54.1219 63.8733 57.7884 61.602 61.7841 59.8475C62.0934 59.7133 62.4077 59.3953 62.5523 59.0871C65.6052 52.5514 70.5737 48.1429 77.4079 45.8566C80.4807 44.8278 83.6833 44.5197 86.9158 44.8328C91.3405 45.2602 95.3762 46.7562 98.9878 49.3506C99.9655 50.0564 100.22 50.7572 99.8159 51.8755C97.5611 58.1776 93.4157 62.8197 87.3847 65.757C83.379 67.7103 79.1189 68.4409 74.6892 68.0284C70.6435 67.6506 66.9072 66.3385 63.535 64.0622C63.0611 63.7441 62.692 63.6795 62.1483 63.9479C57.7884 66.0751 53.9273 68.8733 50.6001 72.3921C50.3955 72.6108 50.2559 72.9786 50.2509 73.2818C50.211 74.574 50.2608 75.8712 50.2209 77.1634C50.201 77.735 50.3955 77.8742 50.9492 77.8742C58.6763 77.8593 66.4034 77.8642 74.1305 77.8642C74.3849 77.8642 74.6443 77.8543 74.8987 77.8742C75.9263 77.9487 76.7643 78.7439 76.7843 79.7678C76.8192 81.7161 76.7943 83.6693 76.7893 85.6226C76.7893 85.6822 76.7544 85.7369 76.7195 85.8313C57.7385 85.8264 38.7625 85.8264 19.7117 85.8264ZM46.2102 35.0417C46.2102 36.2096 46.2003 37.3726 46.2152 38.5406C46.2202 38.9333 46.1254 39.1022 45.6865 39.1122C43.6911 39.1569 41.8304 37.6112 41.6059 35.643C41.556 35.1908 41.4014 35.0118 40.9375 35.0268C39.9797 35.0516 39.0219 35.0516 38.0641 35.0268C37.6252 35.0168 37.4057 35.156 37.4855 35.6083C37.6152 36.314 37.6551 37.0546 37.9145 37.7156C39.2863 41.2146 41.8853 43.0436 45.6615 43.1678C46.0755 43.1827 46.2202 43.302 46.2152 43.7195C46.1953 44.9471 46.2252 46.1797 46.2003 47.4073C46.1903 47.9093 46.32 48.1429 46.8737 48.123C47.8065 48.0882 48.7493 48.0982 49.6822 48.123C50.1611 48.1379 50.3107 47.9491 50.3007 47.4868C50.2758 46.2592 50.3107 45.0266 50.2858 43.799C50.2758 43.3418 50.4005 43.1678 50.8894 43.1628C51.478 43.1579 52.0766 43.0783 52.6553 42.964C57.7135 41.9302 60.547 36.2395 58.2822 31.6123C56.7957 28.5755 54.3065 27.0199 50.9243 26.8956C50.5452 26.8807 50.2758 26.8807 50.2808 26.3688C50.3007 23.9931 50.2958 21.6174 50.2808 19.2416C50.2808 18.844 50.4404 18.7446 50.8146 18.7347C52.8149 18.685 54.6706 20.2307 54.8951 22.2038C54.945 22.6561 55.0996 22.835 55.5635 22.8201C56.5213 22.7953 57.4791 22.8003 58.4369 22.8201C58.8759 22.8301 59.0953 22.6909 59.0105 22.2337C58.8858 21.5478 58.8409 20.8321 58.6115 20.186C57.3993 16.7963 54.516 14.7536 50.8994 14.6791C50.4255 14.6691 50.2708 14.5399 50.2808 14.0628C50.3107 12.8352 50.2758 11.6026 50.3007 10.375C50.3107 9.92764 50.191 9.71393 49.6971 9.72387C48.7394 9.74872 47.7816 9.74872 46.8238 9.72387C46.3499 9.71393 46.1903 9.88788 46.2003 10.3551C46.2252 11.5827 46.1903 12.8153 46.2152 14.0429C46.2252 14.5002 46.1055 14.6791 45.6116 14.684C45.023 14.689 44.4244 14.7685 43.8457 14.8878C38.8174 15.9117 35.969 21.5577 38.1888 26.1799C39.6604 29.2465 42.1596 30.8369 45.5767 30.9463C46.0855 30.9612 46.2352 31.1103 46.2202 31.6073C46.1853 32.7504 46.2052 33.8936 46.2102 35.0417Z" fill="#60666D"/>
<path d="M21.333 90.1156C39.2963 90.1156 57.1898 90.1156 75.2579 90.1156C74.9735 90.384 74.794 90.5679 74.5994 90.7368C72.4743 92.6255 70.6336 94.7428 69.3167 97.2775C68.1045 99.6135 67.4111 102.104 67.0519 104.698C66.5331 108.425 66.588 112.178 66.573 115.925C66.5681 117.715 65.8447 118.44 64.0688 118.44C53.4884 118.44 42.9129 118.44 32.3325 118.44C30.7162 118.44 29.943 117.67 29.9281 116.075C29.9031 113.748 29.938 111.413 29.8383 109.087C29.7086 106.104 29.3943 103.142 28.4465 100.279C27.2493 96.6712 25.1292 93.6891 22.3457 91.1394C22.0464 90.8661 21.747 90.5977 21.4527 90.3243C21.4228 90.2945 21.4078 90.2498 21.333 90.1156Z" fill="#60666D"/>
<path d="M46.2054 22.8449C46.2054 24.008 46.1904 25.1759 46.2104 26.3389C46.2154 26.7465 46.0857 26.8906 45.6666 26.8956C43.776 26.9254 41.9203 25.4642 41.616 23.675C41.2569 21.5428 42.3643 19.5945 44.2898 18.9782C44.4096 18.9384 44.5293 18.8937 44.654 18.8589C45.956 18.4712 46.2054 18.6551 46.2054 19.9871C46.2054 20.9364 46.2054 21.8907 46.2054 22.8449Z" fill="#60666D"/>
<path d="M50.2957 35.0317C50.2957 33.8687 50.3107 32.7007 50.2857 31.5377C50.2758 31.1003 50.4154 30.9512 50.8644 30.9512C53.1092 30.9363 54.9499 32.7653 54.9399 35.0317C54.9349 37.313 53.1092 39.1221 50.8644 39.1121C50.4154 39.1121 50.2708 38.968 50.2808 38.5257C50.3107 37.3627 50.2957 36.1997 50.2957 35.0317Z" fill="#60666D"/>
</svg>
