<svg width="24" height="24" viewBox="0 0 24 24" fill="none" xmlns="http://www.w3.org/2000/svg">
<path fill-rule="evenodd" clip-rule="evenodd" d="M3.83333 18H7.16667C7.625 18 8 17.55 8 17C8 16.45 7.625 16 7.16667 16H3.83333C3.375 16 3 16.45 3 17C3 17.55 3.375 18 3.83333 18ZM3 7C3 7.55 3.325 8 3.72222 8H15.2778C15.675 8 16 7.55 16 7C16 6.45 15.675 6 15.2778 6H3.72222C3.325 6 3 6.45 3 7ZM3.75 13H11.25C11.6625 13 12 12.55 12 12C12 11.45 11.6625 11 11.25 11H3.75C3.3375 11 3 11.45 3 12C3 12.55 3.3375 13 3.75 13Z" fill="white"/>
<path fill-rule="evenodd" clip-rule="evenodd" d="M20.2915 16.01L20.2915 5C20.2915 4.45 19.8415 4 19.2915 4C18.7415 4 18.2915 4.45 18.2915 5L18.2915 16.01L16.5015 16.01C16.0515 16.01 15.8315 16.55 16.1515 16.86L18.9415 19.64C19.1415 19.83 19.4515 19.83 19.6515 19.64L22.4415 16.86C22.7615 16.55 22.5315 16.01 22.0915 16.01L20.2915 16.01Z" fill="white"/>
</svg>
