<svg width="24" height="24" viewBox="0 0 24 24" fill="none" xmlns="http://www.w3.org/2000/svg">
<path d="M12 0C5.37225 0 0 5.37225 0 12C0 18.6262 5.37225 24 12 24C18.6278 24 24 18.6262 24 12C24 5.37225 18.6278 0 12 0ZM18.651 17.6205L18.6532 17.6227C18.945 18.0285 19.0883 18.4223 19.0928 18.8243V18.8333V18.8385C19.092 19.1992 18.9772 19.536 18.7448 19.8652C18.5287 20.1712 18.2437 20.3978 18.093 20.505C18.0945 20.505 18.096 20.5035 18.0975 20.5028C17.964 20.6017 17.7517 20.7367 17.5035 20.8417C17.505 20.8417 17.505 20.8417 17.505 20.8417C17.2395 20.9535 16.9762 21.009 16.722 21.009H16.719H16.7153H16.7108C16.434 21.0075 16.1798 20.9415 15.9345 20.8118L15.9307 20.8095L15.9255 20.8088C15.6525 20.6588 15.4117 20.4375 15.1882 20.13L11.9333 15.7035L8.7345 20.1285C8.514 20.436 8.274 20.6572 8.00175 20.8073L7.99725 20.8088L7.99275 20.811C7.749 20.9408 7.49475 21.0075 7.21875 21.0098H7.2135H7.2075H7.206C6.951 21.0098 6.6855 20.9535 6.4185 20.838L6.41925 20.8395C6.168 20.7337 5.955 20.5958 5.82 20.4967L5.82075 20.4975C5.66925 20.388 5.39025 20.1622 5.1795 19.863H5.17875H5.178C4.9485 19.536 4.8345 19.2008 4.833 18.8415V18.8363V18.8288C4.8375 18.4237 4.98075 18.03 5.27475 17.6213L5.277 17.619L5.27925 17.6168L8.475 13.1918L3.2415 11.424L3.24 11.4225L3.237 11.4218C2.736 11.2552 2.388 11.0183 2.145 10.674L2.14125 10.665L2.13675 10.6605C1.93875 10.371 1.842 10.0417 1.8405 9.651C1.83825 9.285 1.9335 8.94225 1.9935 8.76675C2.06625 8.5395 2.2305 8.118 2.53575 7.78725H2.535C2.6925 7.61625 2.87175 7.482 3.06675 7.389L3.06975 7.386L3.07275 7.3845C3.2985 7.2795 3.5385 7.22775 3.8025 7.22625H3.8055H3.80775C4.04475 7.22625 4.29825 7.26975 4.5615 7.35525L9.795 9.1245L9.8175 3.60375C9.819 3.201 9.891 2.865 10.0417 2.57325L10.044 2.57025L10.0448 2.56725C10.1475 2.37 10.2803 2.2035 10.4513 2.06175L10.452 2.06025H10.4535C10.665 1.8825 10.9282 1.755 11.235 1.67775C11.5103 1.608 11.7795 1.59375 11.9557 1.59375H11.9602H11.9625C12.117 1.59375 12.3517 1.605 12.6 1.65675C13.0252 1.74975 13.368 1.935 13.6185 2.20875C13.7708 2.37525 13.8832 2.56575 13.9642 2.79L13.9657 2.79075L13.9665 2.793C14.0505 3.0315 14.0933 3.303 14.0933 3.60225L14.0707 9.123L19.3515 7.353C19.6117 7.269 19.8637 7.22625 20.1 7.22625H20.1045H20.1068C20.3715 7.22625 20.6092 7.2795 20.8365 7.3845H20.838L20.841 7.386C21.123 7.521 21.3682 7.74 21.5693 8.034V8.03325C21.7478 8.298 21.8603 8.58 21.924 8.77275C21.9233 8.7705 21.9233 8.76975 21.9233 8.76975C21.9795 8.9385 22.0725 9.27675 22.0702 9.6405C22.0695 10.0267 21.969 10.368 21.7747 10.653L21.7703 10.6605L21.765 10.665C21.5205 11.013 21.1733 11.253 20.6722 11.4202L20.667 11.4225L20.6647 11.424L15.3937 13.1887L18.6488 17.6182L18.651 17.6205Z" fill="#A6C044"/>
</svg>
